<svg width="22" height="22" viewBox="0 0 22 22" fill="none" xmlns="http://www.w3.org/2000/svg">
<g clip-path="url(#clip0_0_221)">
<path d="M19.25 6.19261L17.4167 8.02595V3.66536H9.16669V8.2487H4.58336V18.332H17.4167V15.8048L19.25 13.9714V19.256C19.2498 19.4973 19.1538 19.7286 18.9831 19.8991C18.8124 20.0696 18.581 20.1654 18.3398 20.1654H3.66027C3.53989 20.1645 3.42086 20.14 3.30996 20.0931C3.19907 20.0463 3.09849 19.9781 3.01396 19.8923C2.92944 19.8066 2.86263 19.7051 2.81734 19.5936C2.77205 19.482 2.74918 19.3627 2.75002 19.2423V7.33203L8.25277 1.83203H18.3315C18.8375 1.83203 19.25 2.24911 19.25 2.74136V6.19261ZM19.9632 8.07178L21.2594 9.36887L14.1295 16.4987L12.8315 16.4969L12.8334 15.2025L19.9632 8.0727V8.07178Z" fill="black"/>
</g>
<defs>
<clipPath id="clip0_0_221">
<rect width="22" height="22" fill="white"/>
</clipPath>
</defs>
</svg>
